<?xml version="1.0" encoding="utf-8"?>
<!-- Generator: Adobe Illustrator 22.1.0, SVG Export Plug-In . SVG Version: 6.00 Build 0)  -->
<svg version="1.1" id="Layer_1" xmlns="http://www.w3.org/2000/svg" xmlns:xlink="http://www.w3.org/1999/xlink" x="0px" y="0px"
	 viewBox="0 0 1920 1080" style="enable-background:new 0 0 1920 1080;" xml:space="preserve">
<style type="text/css">
	.st0{stroke:#000000;stroke-miterlimit:10;}
	.st1{fill:none;}
	.st2{fill:#FFFFFF;}
</style>
<path class="st0" d="M542.1,123.5c-4.8,8.3,64.5,36.9,101.6,106.4c38.7,72.4,23.2,153,2.7,260.4c-24.4,127.2-51.2,141.5-58.8,246.4
	c-5.5,76.3-10.6,146,34.8,193.2c41.6,43.2,119.7,61.4,171.1,25.2c47.6-33.5,52.9-99.9,53.5-109.2c5.2-80.7-52.5-129.3-32.1-156.8
	c18.8-25.3,80.2-0.3,85.6-16.8c3.3-10.1-19.4-21.1-50.8-61.6c-18.2-23.4-27.3-35.1-32.1-50.4c-11.3-35.8,4.5-55.4-10.7-98
	c-6.3-17.7-12.4-23.5-18.7-25.2c-9.8-2.6-22.1,4.3-26.7,14c-5.1,10.8,3.7,15.8,0,30.8c-3.1,12.6-12.6,22.1-24.1,33.6
	c-4.4,4.4-7.9,7.4-8.5,7.9c-10.1,8.7-43.3,47-55.7,115.3c-14.6,80.3,8.6,151.5,10.7,151.2c1.9-0.3-16.6-62.7-10.7-151.2
	c7-104.4,39-112,48.1-201.6c1.7-16.3,16.3-181.7-80.2-268.7C599.1,130.4,546.2,116.5,542.1,123.5z"/>
<rect x="835.8" y="474.3" class="st1" width="17.5" height="15"/>
<g>
	<g>
		<path d="M831,509.7c4.5,3.1,11.2,8.2,17.8,12.7c8.3,5.7,16.9,11.5,23.9,18.7c5,5.2,9.2,11.2,11.5,17.2c3.9,10.3,0.3,15.6-6.5,15.7
			c0.1,0.1,0.1,0.2,0.1,0.4c6.5,4.2,12,10.4,16.9,18.5c6.5,10.9,11.2,17.8,13.8,20.6c-4-0.2-6-0.3-9.9-0.9c-2-2.2-6.5-8.9-12-19
			c-4.8-8.8-11.4-16.7-20.6-21.2c-3.6-1.8-5.4-2.7-9-4.9c4.2,12.3,8.4,24.5,12.8,36.8c-3.8-1.7-5.8-2.6-9.6-4.8
			C850,569.8,840.3,539.8,831,509.7z M854.1,559c3.9,2.4,5.9,3.6,9.8,5.6c10.3,5.2,14.6,0.9,11.2-8.2c-4-10.7-13.1-18.6-22.6-24.6
			c-4.6-3-7.8-4.9-9.1-5.6C846.8,537.1,850.4,548.1,854.1,559z"/>
		<path d="M908.3,551.5c-9-0.4-13.6-1.1-22.6-3.5c-1.3-3.4-1.9-5.1-3.2-8.6c19.2,4.6,35.7,5.1,55,1.9c1.3,2.8,1.9,4.2,3.2,6.9
			c-9.1,2.2-13.6,2.8-22.7,3.2c8.5,19.4,17.2,38.7,26.3,57.8c-3.9,1-5.8,1.5-9.7,2.2C925.5,591.7,916.8,571.7,908.3,551.5z"/>
		<path d="M968.6,600.7c0.3-2,0.4-4.2,0.3-6.4c-0.2-7.8-2.3-16.6,1.3-23.9c1.1-2.1,2.7-4.1,4.7-5.7c-0.1-0.1-0.1-0.1-0.1-0.2
			c-9.8,3.3-19.7,0.6-23.7-7.6c-2.6-5.3-2-10.3,0.8-14.4c3.1-4.5,9.6-8.5,19-12.8c6.3-2.9,13.1-6,18.4-8
			c9.5,16.8,19.2,33.3,29.2,49.8c-3.8,2.8-5.8,4.1-9.6,6.7c-5.1-8.6-7.7-13-12.8-21.9c-2.8,1.7-4.2,2.5-7.1,4.2
			c-4.6,2.6-7.7,5.1-9.3,8.4c-3,6.4-0.6,15.6-0.6,22c0,1.7,0,3.2-0.3,5.2C974.7,598,972.7,598.9,968.6,600.7z M982.4,531.7
			c-1.8,0.6-5.1,1.9-9.4,3.9c-9.5,4.5-16.1,10.2-12,18.2c3.6,7,13.6,7.7,24,1.9c3.2-1.7,6.3-3.5,8.1-4.7
			C988.8,543.4,986.7,539.5,982.4,531.7z"/>
		<path d="M1083.7,481.6c12.4,18-5.7,43-19,53.7c-11.4,9.2-37.4,23.2-48.4,3.5c-10.4-18.6,4.6-40.3,19-50.8
			C1047.1,479.3,1071.7,464.1,1083.7,481.6z M1026.5,531c7.7,12.4,26.4,8.7,35.7-0.9c9.9-10.3,20.5-26,11.6-39.1
			c-8-11.8-25.8-5.3-35.7,2.1C1026.6,501.5,1018.7,518.6,1026.5,531z"/>
		<path d="M1105.3,486.2c5.4-2.5,12.5-7.2,19.1-13.4c9.8-9.2,13.5-17.4,10.5-21.7c-2.8-3.9-8.8-2.6-19.9,4.7
			c-6.2,4.1-23.1,13.9-28,6.3c-5.9-9.1,7.9-26.7,16-33.7c7.6-7.1,13.8-11.3,17.9-13.3c0.2,2.8,0.3,4.1,0.5,6.9
			c-3,1.5-8.8,4.9-15.5,11.2c-10.1,9.5-11.6,16.5-9.6,19.4c2.8,3.9,8.8,1.2,20.5-5.7c8.2-4.9,21.9-12.6,27.7-5.3
			c7.3,9.4-9.4,27.8-17.5,36.3c-7.2,6.7-15.8,12.9-20.9,15.1C1105.7,490.3,1105.6,488.9,1105.3,486.2z"/>
		<path d="M1136.4,399.2c4.3-4.7,10.1-10.7,17.9-17.7c9.5-8.6,17.4-13.3,23.3-14.7c5.4-1.3,10.1-0.1,12.7,4c2.7,4.1,2.8,9,0.6,14.4
			c-4,9.7-12.1,17-19.5,24c-2.9,2.5-5.6,4.8-8,6.4c4.7,7,7.1,10.5,11.8,17.6c-3.8,3.3-5.8,5-9.6,8.4
			C1156,427.3,1146.2,413.2,1136.4,399.2z M1160.3,411c2.3-1.6,5.1-3.8,8.2-6.6c6.5-5.3,17.5-16.7,12.3-25.5
			c-3.4-5.8-12.7-2.8-23.3,6.7c-4.2,3.8-7.3,6.9-8.7,8.6C1153.4,401,1155.7,404.3,1160.3,411z"/>
		<path d="M1275.3,365.8c-2.8,2.7-9.2,6.7-18.2,11.1c-14.7,7.3-40.7,15.4-51.7-2.5c-12.5-20.3,8.8-41.8,23.3-53
			c9.3-6,15.9-7.9,19-8.3c0.3,2.8,0.5,4.1,0.8,6.9c-4.3,0.7-10.1,2.8-16.2,6.7c-13,8.1-25.8,25.5-16.8,40.1
			c8.9,14.5,27.2,8.6,40.5,3.2c5.8-2.9,11.3-6.4,14.4-9.4C1272.3,362.6,1273.3,363.7,1275.3,365.8z"/>
		<path d="M1279.2,304.7c-9,3.1-13.6,5-22.6,9.4c-1.3-2.4-1.9-3.6-3.2-6c18.1-8.6,35.2-14.5,55-17.6c1.3,2.9,1.9,4.4,3.2,7.4
			c-9.1,0.7-13.6,1.5-22.7,3.9c9.1,19.2,17.8,38.4,26.3,57.9c-3.9,0.2-5.8,0.3-9.7,0.8C1297,341.8,1288.3,323.1,1279.2,304.7z"/>
		<path d="M1346.2,362.9c-9.5-24.5-19.3-48.8-29.6-72.9c4.2-0.1,6.3-0.1,10.5,0.2c14.4,13.9,26.8,29.5,38.8,45.5
			c8.2,11.8,16,23.8,22.9,36.5c0.1,0,0.1,0,0.2,0c-4.6-12.4-9-24.9-13.2-37.4c-4-11.9-8.2-23.7-12.4-35.5c3.6,1.6,5.4,2.5,9,4.5
			c10.3,30.2,20.1,60.6,29.6,91.1c-3.9-3.5-5.8-5.2-9.7-8.2c-11.9-19.7-24.5-38.6-38.6-56.8c-7.8-9.5-15.7-19-23.8-28.3
			c-0.1,0-0.2,0-0.3,0.1c4.7,10.1,8.8,20.4,13,30.7c4.3,11.1,8.5,22.2,12.6,33.4C1351.6,364.4,1349.8,363.8,1346.2,362.9z"/>
	</g>
	<g>
	</g>
</g>
<path class="st2" d="M684,164c-52.7,405.6-99.4,787.3-88,789c9.2,1.4,42-246.5,96-247c35.4-0.3,60,105.8,65,104
	c6.4-2.3-29.1-176.2-78-177c-20.4-0.3-42.5,29.5-37,40c11,20.9,148.8,0.2,159-57c9.3-52.2-92.5-109.6-99-103
	c-6.3,6.3,72.1,74.6,56,100c-10.8,17.1-64.1,14.2-89-15c-22-25.8-14.8-63.9-14-68c5.7-28.2,22.9-37.4,22-67c-0.4-14.3-5-30-9-30
	c-4.2,0-7.3,17.2-9,28"/>
</svg>
